<svg t="1773773911888" class="icon" viewBox="0 0 1024 1024" version="1.1" xmlns="http://www.w3.org/2000/svg" p-id="17407" width="200" height="200"><path d="M415.100343 103.306971l62.127543 2.589258s25.102629 1.184914 30.9248 34.143085 43.593143 261.500343 43.593143 261.500343l202.005942 22.513372c59.538286 0 103.2192 48.054857 103.2192 107.3152v295.189942c0 59.260343-39.1168 88.941714-98.625828 88.941715H491.198171c-59.538286 0-297.969371-165.536914-312.597942-209.232457-5.280914-15.798857-8.660114-25.131886-10.810515-36.410515-3.818057-19.938743-3.818057-29.535086-3.818057-29.535085l33.879772 5.646628 185.5488 25.234286s8.6016-505.7536 8.6016-536.239543 23.098514-31.656229 23.098514-31.656229m0-58.514285a62.025143 62.025143 0 0 0-3.6864 0.117028c-37.7856 2.384457-77.941029 34.859886-77.941029 90.346057 0 21.006629-4.4032 287.670857-7.4752 469.855086l-120.451657-15.9744-33.865143-4.520228a58.602057 58.602057 0 0 0-46.270171 13.999542 58.485029 58.485029 0 0 0-19.953372 44.002743c0 2.911086 0.234057 18.651429 4.856686 42.832457 3.042743 15.915886 7.343543 32.256 12.8 48.5376 11.629714 34.742857 65.784686 77.604571 160.958172 145.5104 96.446171 68.798171 166.122057 94.5152 207.125942 94.5152h267.1616c91.691886 0 157.140114-56.027429 157.140115-147.456V531.368229c0-90.272914-68.125257-163.913143-158.208-165.800229l-157.330286-17.378743c-11.307886-68.242286-31.0272-194.077257-35.313371-218.331428-9.596343-54.286629-50.629486-80.764343-85.226058-82.402743l-62.1568-2.603886a35.649829 35.649829 0 0 0-2.165028-0.058514z" fill="" p-id="17408"></path><path d="M798.471314 809.749943a14.628571 14.628571 0 0 1-14.628571-14.628572V566.213486c0-34.464914-21.328457-60.445257-55.7056-60.445257l-63.122286-5.880686c-8.031086-0.731429-12.8-7.855543-12.053943-15.901257 0.731429-8.045714 8.265143-21.226057 16.471772-20.523886l64.643657-1.448229h0.087771c48.859429 0 78.935771 53.935543 78.935772 104.199315v228.907885a14.628571 14.628571 0 0 1-14.628572 14.628572zM618.759314 490.9056a14.043429 14.043429 0 0 1-1.565257-0.087771l-31.831771-3.393829a14.6432 14.6432 0 0 1-13.0048-16.106057 14.730971 14.730971 0 0 1 16.120685-12.990172l31.831772 3.393829a14.628571 14.628571 0 0 1-1.550629 29.184z" fill="" p-id="17409"></path></svg>