<svg t="1773772131331" class="icon" viewBox="0 0 1024 1024" version="1.1" xmlns="http://www.w3.org/2000/svg" p-id="7072" width="200" height="200"><path d="M195.047619 914.285714v-73.142857h73.142857v-658.285714H195.047619v-73.142857h438.857143v1.340952c102.521905 11.337143 182.857143 93.208381 182.857143 193.706667 0 62.902857-31.451429 118.491429-80.11581 154.087619 76.873143 41.910857 128.877714 120.783238 128.877715 211.626666 0 127.24419-102.009905 231.033905-231.594667 242.712381L633.904762 914.285714H195.047619z m414.476191-414.47619H341.333333v341.333333h268.190477c101.424762 0 182.857143-76.897524 182.857142-170.666667s-81.432381-170.666667-182.857142-170.666666z m0-316.952381H341.333333v243.809524h268.190477l5.558857-0.097524c72.021333-2.681905 128.536381-56.783238 128.536381-121.807238 0-66.706286-59.465143-121.904762-134.095238-121.904762z" p-id="7073"></path></svg>