<svg t="1773773949377" class="icon" viewBox="0 0 1024 1024" version="1.1" xmlns="http://www.w3.org/2000/svg" p-id="18428" width="200" height="200"><path d="M384 682.633463h298.832685A170.633463 170.633463 0 0 0 853.366537 512V170.633463A170.633463 170.633463 0 0 0 682.633463 0h-512A170.633463 170.633463 0 0 0 0 170.633463V512a170.633463 170.633463 0 0 0 170.633463 170.633463v170.733074zM42.633463 512V170.633463A128.099611 128.099611 0 0 1 170.633463 42.633463h512a128 128 0 0 1 128 128V512a128 128 0 0 1-128 128H369.058366l-155.691829 124.513619v-124.513619h-42.733074A128 128 0 0 1 42.633463 512zM341.366537 810.633463h85.366537v42.633463h-85.366537z" fill="#00528F" p-id="18429"></path><path d="M938.633463 213.366537v42.633463a42.733074 42.733074 0 0 1 42.733074 42.832685v383.800778a128 128 0 0 1-128 128h-42.733074v124.61323L654.941634 810.633463H512v42.733074h128l213.366537 170.633463V853.366537a170.633463 170.633463 0 0 0 170.633463-170.733074V298.832685a85.366537 85.366537 0 0 0-85.366537-85.466148zM170.633463 170.633463h170.633463v42.633463H170.633463zM170.633463 426.633463H512v42.633463H170.633463zM170.633463 298.633463h512v42.633463h-512zM426.633463 170.633463h256v42.633463h-256z" fill="#00528F" p-id="18430"></path></svg>