<svg t="1773772336615" class="icon" viewBox="0 0 1024 1024" version="1.1" xmlns="http://www.w3.org/2000/svg" p-id="11255" width="200" height="200"><path d="M128 138.666667a32 32 0 0 1 32 32v682.666666a32 32 0 0 1-64 0V170.666667A32 32 0 0 1 128 138.666667zM533.333333 138.666667a32 32 0 0 1 32 32v682.666666a32 32 0 0 1-64 0V170.666667a32 32 0 0 1 32-32z" p-id="11256"></path><path d="M96 512a32 32 0 0 1 32-32h405.333333a32 32 0 0 1 0 64H128a32 32 0 0 1-32-32zM843.946667 375.978667a32 32 0 0 1 20.053333 29.696V853.333333a32 32 0 0 1-64 0v-368l-46.72 48.810667a32 32 0 1 1-46.208-44.288l101.845333-106.325333a32 32 0 0 1 34.986667-7.552z" p-id="11257"></path></svg>