<svg t="1773772348421" class="icon" viewBox="0 0 1024 1024" version="1.1" xmlns="http://www.w3.org/2000/svg" p-id="12267" width="200" height="200"><path d="M128 138.666667a32 32 0 0 1 32 32v682.666666a32 32 0 0 1-64 0V170.666667A32 32 0 0 1 128 138.666667zM512 138.666667a32 32 0 0 1 32 32v682.666666a32 32 0 0 1-64 0V170.666667a32 32 0 0 1 32-32z" p-id="12268"></path><path d="M117.333333 512a32 32 0 0 1 32-32h341.333334a32 32 0 0 1 0 64h-341.333334a32 32 0 0 1-32-32zM789.333333 458.666667c-35.669333 0-74.666667 28.16-74.666666 74.666666a32 32 0 0 1-64 0c0-88.576 74.794667-138.666667 138.666666-138.666666s138.666667 50.090667 138.666667 138.666666c0 40.021333-17.578667 75.093333-39.552 105.045334-21.888 29.824-50.56 57.728-76.928 83.072l-4.096 3.925333c-25.685333 24.704-48.853333 46.933333-66.218667 69.162667a171.477333 171.477333 0 0 0-17.621333 26.794666H896a32 32 0 0 1 0 64h-213.333333a32 32 0 0 1-32-32c0-37.632 18.517333-70.570667 40.106666-98.218666 20.309333-25.941333 46.592-51.2 71.210667-74.837334l5.162667-4.949333c26.965333-25.898667 51.626667-50.133333 69.717333-74.837333 18.048-24.576 27.136-46.378667 27.136-67.157334 0-46.506667-38.997333-74.666667-74.666667-74.666666z" p-id="12269"></path></svg>