<svg t="1773772362864" class="icon" viewBox="0 0 1024 1024" version="1.1" xmlns="http://www.w3.org/2000/svg" p-id="13249" width="200" height="200"><path d="M517.836 139c17.496 0 31.713 14.042 31.995 31.47l0.005 0.53v683c0 17.673-14.327 32-32 32-17.497 0-31.714-14.042-31.996-31.47l-0.004-0.53V544.5H165.67V854c0 17.673-14.327 32-32 32-17.496 0-31.713-14.042-31.995-31.47l-0.005-0.53V171c0-17.673 14.327-32 32-32 17.497 0 31.713 14.042 31.996 31.47l0.004 0.53v309.5h320.164V171c0-17.673 14.328-32 32-32zM902 395.125c26.362 0 41.307 30.016 25.74 51.012l-0.48 0.633L812.584 594.22l2.73 0.703c71.344 18.861 117.506 71.571 118.664 149.355l0.022 3.004c0 49.072-17.99 86.855-50.149 110.975C858.65 877.158 826.821 886 795.288 886c-54.587 0-99.06-20.83-130.391-55.297-11.888-13.077-10.924-33.316 2.154-45.204 13.077-11.887 33.315-10.923 45.203 2.154C731.775 809.128 759.257 822 795.288 822c18.62 0 37.073-5.126 50.162-14.943 15.665-11.75 24.55-30.41 24.55-59.776 0-31.718-10.71-55.085-30.676-71.06-20.123-16.099-50.17-25.002-86.721-25.002-26.362 0-41.307-30.017-25.741-51.012l0.48-0.634 109.231-140.448H688.575c-17.496 0-31.713-14.042-31.995-31.47l-0.005-0.53c0-17.496 14.042-31.713 31.471-32H902z" p-id="13250"></path></svg>