<svg t="1773772181573" class="icon" viewBox="0 0 1024 1024" version="1.1" xmlns="http://www.w3.org/2000/svg" p-id="8042" width="200" height="200"><path d="M793.6 102.4l-204.8512 0c-0.0512 0-0.1536 0-0.2048 0l-204.544 0c-14.1312 0-25.6 11.4688-25.6 25.6s11.4688 25.6 25.6 25.6l173.568 0-143.36 716.8-183.808 0c-14.1312 0-25.6 11.4688-25.6 25.6s11.4688 25.6 25.6 25.6l204.7488 0c0.0512 0 0.0512 0 0.1024 0s0.0512 0 0.1024 0l204.6464 0c14.1312 0 25.6-11.4688 25.6-25.6s-11.4688-25.6-25.6-25.6l-173.568 0 143.36-716.8 183.808 0c14.1312 0 25.6-11.4688 25.6-25.6s-11.4688-25.6-25.6-25.6z" fill="#000000" p-id="8043"></path></svg>